<?xml version="1.0" encoding="iso-8859-1"?>
<!-- Generator: Adobe Illustrator 19.0.0, SVG Export Plug-In . SVG Version: 6.00 Build 0)  -->
<svg version="1.1" id="Layer_1" xmlns="http://www.w3.org/2000/svg" xmlns:xlink="http://www.w3.org/1999/xlink" x="0px" y="0px"
	 viewBox="0 0 512 512" style="enable-background:new 0 0 512 512;" xml:space="preserve">
<g>
	<g>
		<path d="M512,230.945c0-15.938-3.875-31.813-11.203-45.914c-5.391-10.359-12.672-19.82-21.328-27.789
			c-1.906-16.875-11-32.023-24.656-41.797c-0.141-22.039-8.922-42.727-24.781-58.289c-15.859-15.586-36.938-24.172-59.313-24.172
			c-13.156,0-25.813,2.922-37.281,8.555c-9.297-5.508-20.016-8.508-31.063-8.508c-15.469,0-30.016,5.844-40.969,15.82
			c-7.172-2.906-14.93-4.43-22.938-4.43c-1.008,0-2.023,0.023-3.031,0.078c-12.914-7.563-27.531-11.516-42.766-11.516
			c-34.672,0-65.273,21.008-77.93,51.742c-26.008,6.672-45.273,30.07-45.273,57.836c0,3.563,0.32,7.102,0.953,10.57
			c-8.219,6.695-14.508,15.43-18.203,25.313C22.766,182.414,0,207.445,0,237.633c0,15.555,6.094,30.133,16.492,41.008
			c-4.5,10.313-6.883,21.5-6.883,32.844c0,19,6.688,37.594,18.82,52.313c9.43,11.453,21.844,20.219,35.719,25.375
			c4.102,7.531,9.82,14.188,16.742,19.375c10.57,7.938,23.195,12.125,36.492,12.125c7.523,0,14.828-1.344,21.68-3.938
			c9.016,5.094,19.25,7.813,29.938,7.813c10.461,0,20.523-2.656,29.359-7.516c0.25,0.203,0.5,0.391,0.75,0.578
			c1.156,0.875,2.344,1.688,3.555,2.438v37.625h-21.328c-5.891,0-10.672,4.781-10.672,10.688c0,5.875,4.781,10.656,10.672,10.656
			h149.32c5.906,0,10.688-4.781,10.688-10.656c0-5.906-4.781-10.688-10.688-10.688h-21.313v-26.906
			c5.844-2.094,11.375-5.063,16.469-8.875c3.359-2.531,6.438-5.391,9.203-8.531c11.203,4.781,23.359,7.313,35.703,7.313
			c40.875,0,76.016-27.203,86.5-65.063c7.141-3.938,13.5-9.297,18.516-15.719c8.234-10.547,12.594-23.156,12.594-36.5
			c0-2.5-0.141-4.969-0.453-7.406c6.109-7.109,11.156-15,15.094-23.594C508.969,259.32,512,245.375,512,230.945z M245.336,457.672
			H224v-30.219c1.813,0.188,3.648,0.297,5.5,0.297c5.461,0,10.797-0.875,15.836-2.531V457.672z M288,457.672h-21.344v-27.141
			c6.813,2.5,14.031,3.813,21.344,3.844V457.672z M464.375,289.547c1.688,4.297,2.625,8.969,2.625,13.844
			c0,17.578-12.031,32.375-28.438,36.938c-4.094,33.25-32.906,59.016-67.844,59.016c-16.469,0-31.547-5.703-43.344-15.234
			c-4.859,16.719-20.5,28.938-39.063,28.938c-14.75,0-27.664-7.719-34.781-19.266c-5.172,7.609-14,12.641-24.031,12.641
			c-13.211,0-24.336-8.719-27.773-20.625c-6.977,10.484-19.023,17.406-32.727,17.406c-11,0-20.93-4.469-28.031-11.641
			c-6.555,4.891-14.727,7.781-23.586,7.781c-17.82,0-32.844-11.703-37.555-27.734c-27.984-6.188-48.883-30.766-48.883-60.125
			c0-14.625,5.195-28.063,13.867-38.656c-13.82-5.914-23.477-19.445-23.477-35.195c0-21.211,17.5-38.406,39.094-38.406
			c3.242,0,6.391,0.398,9.398,1.125c-0.008-0.375-0.023-0.742-0.023-1.125c0-17.008,11.258-31.422,26.844-36.469
			c-3.703-5.867-5.844-12.789-5.844-20.195c0-21.211,17.508-38.406,39.094-38.406c0.391,0,0.773,0.016,1.156,0.031
			c5.594-28.414,31.055-49.867,61.617-49.867c14.102,0,27.125,4.57,37.602,12.289c2.648-0.555,5.383-0.859,8.195-0.859
			c11.016,0,20.953,4.477,28.063,11.672c6.031-13.57,19.797-23.055,35.844-23.055c11.75,0,22.313,5.109,29.469,13.188
			c10.688-8.289,24.188-13.234,38.875-13.234c34.656,0,62.75,27.602,62.75,61.648c0,3.984-0.375,7.883-1.125,11.656
			c15.25,5.242,26.172,19.484,26.172,36.242c0,1.195-0.063,2.383-0.172,3.547c19.625,14.492,32.313,37.555,32.313,63.531
			C490.656,254.148,480.531,275.031,464.375,289.547z"/>
	</g>
</g>
<g>
</g>
<g>
</g>
<g>
</g>
<g>
</g>
<g>
</g>
<g>
</g>
<g>
</g>
<g>
</g>
<g>
</g>
<g>
</g>
<g>
</g>
<g>
</g>
<g>
</g>
<g>
</g>
<g>
</g>
</svg>
