<?xml version="1.0" encoding="iso-8859-1"?>
<!-- Generator: Adobe Illustrator 19.0.0, SVG Export Plug-In . SVG Version: 6.00 Build 0)  -->
<svg version="1.1" id="Capa_1" xmlns="http://www.w3.org/2000/svg" xmlns:xlink="http://www.w3.org/1999/xlink" x="0px" y="0px"
	 viewBox="0 0 512 512" style="enable-background:new 0 0 512 512;" xml:space="preserve">
<g>
	<g>
		<path d="M504.5,433.5H502V417c0-4.143-3.358-7.5-7.5-7.5c-4.142,0-7.5,3.357-7.5,7.5v16.5h-15V331.001v-30V191.003v-12.5h15V386
			c0,4.143,3.358,7.5,7.5,7.5c4.142,0,7.5-3.357,7.5-7.5V171.004c0-4.143-3.358-7.5-7.5-7.5h-30c-4.035,0-7.317,3.189-7.484,7.183
			c-0.206-3.391-0.61-6.769-1.265-10.121c-0.011-0.059-0.023-0.117-0.037-0.176l-0.25-1.203
			c-2.986-13.983-9.933-26.999-20.109-37.663c-1.196-1.243-2.289-2.323-3.325-3.29c-24.389-22.872-62.582-31.794-99.667-23.279
			c-10.536,2.417-20.589,6.145-29.874,10.972c-1.857,0.966-3.683,1.975-5.476,3.027c-0.897,0.526-1.785,1.062-2.665,1.609
			c-13.703,8.517-25.324,19.555-33.806,32.312c-3.351-2.576-7.111-4.573-11.274-6.017c3.194-11.276,9.258-17.679,16.126-24.895
			c7.135-7.497,15.223-15.995,19.052-30.362V81.6c2.555-9.59,1.149-16.461-4.178-20.422c-4.622-3.435-11.103-3.658-19.75-0.657
			c1.231-9.216,0.304-19.466-7.938-24.514c-4.195-2.575-8.757-3.183-13.195-1.747c-3.474,1.122-6.372,3.372-8.695,5.883
			c-2.326-2.512-5.226-4.762-8.701-5.885c-4.438-1.433-8.998-0.828-13.187,1.744c-8.244,5.054-9.171,15.302-7.939,24.517
			c-8.646-2.998-15.127-2.776-19.747,0.659c-5.328,3.961-6.733,10.832-4.178,20.423c3.83,14.367,11.917,22.865,19.052,30.362
			c6.868,7.216,12.932,13.619,16.126,24.896c-8.657,3.002-15.547,8.429-20.717,16.364c-0.443-2.613-0.935-5.138-1.479-7.575
			c-0.002-0.011-0.002-0.022-0.005-0.033c-7.037-31.62-22.261-44.367-38.553-49.263V66.005c0-6.008-2.339-11.655-6.576-15.892
			c-4.245-4.261-9.9-6.607-15.924-6.607c-12.407,0-22.5,10.094-22.5,22.5v30.346c-16.29,4.896-31.514,17.642-38.549,49.256
			c-2.412,10.785-3.819,23.243-4.277,37.896H55v-12.5c0-4.143-3.358-7.5-7.5-7.5h-30c-4.142,0-7.5,3.357-7.5,7.5v21.75
			c0,4.143,3.358,7.5,7.5,7.5s7.5-3.357,7.5-7.5v-14.25h15v12.5v109.998v30V433.5H25V225.336c0-4.143-3.358-7.5-7.5-7.5
			s-7.5,3.357-7.5,7.5V433.5H7.5c-4.142,0-7.5,3.357-7.5,7.5v30c0,4.143,3.358,7.5,7.5,7.5h497c4.142,0,7.5-3.357,7.5-7.5v-30
			C512,436.857,508.642,433.5,504.5,433.5z M457,180.668v2.835h-0.262C456.837,182.558,456.935,181.612,457,180.668z
			 M429.105,137.226c5.803,7.497,9.729,15.911,11.693,25.105l0.102,0.493c0.047,0.233,0.095,0.466,0.145,0.695
			c1.274,6.568,1.464,13.267,0.599,19.984H280.349c0.208-0.233,0.415-0.459,0.624-0.696c24.437-27.679,39.669-27.899,56.329-19.273
			c16.006,8.287,40.98,8.409,60.732,0.295C411.859,158.149,422.411,149.057,429.105,137.226z M335.718,109.574
			c0.977-0.224,1.955-0.434,2.933-0.63c0.38-0.077,0.761-0.143,1.141-0.215c0.598-0.114,1.197-0.23,1.795-0.334
			c0.445-0.077,0.89-0.144,1.335-0.216c0.533-0.086,1.067-0.174,1.6-0.252c0.47-0.069,0.94-0.128,1.409-0.19
			c0.51-0.068,1.019-0.137,1.528-0.198c0.482-0.057,0.963-0.106,1.444-0.157c0.494-0.052,0.989-0.105,1.482-0.151
			c0.491-0.045,0.981-0.083,1.471-0.121c0.485-0.038,0.97-0.076,1.454-0.107c0.493-0.032,0.985-0.058,1.477-0.083
			c0.481-0.024,0.961-0.048,1.441-0.066c0.492-0.019,0.982-0.033,1.473-0.044c0.48-0.012,0.959-0.021,1.437-0.026
			c0.488-0.005,0.976-0.007,1.463-0.006c0.48,0.001,0.959,0.006,1.438,0.014c0.482,0.008,0.963,0.018,1.443,0.032
			c0.482,0.014,0.963,0.033,1.444,0.054c0.475,0.021,0.95,0.042,1.424,0.069c0.485,0.028,0.969,0.062,1.452,0.096
			c0.464,0.033,0.929,0.066,1.392,0.105c0.494,0.042,0.986,0.091,1.478,0.139c0.449,0.044,0.898,0.087,1.346,0.137
			c0.509,0.057,1.015,0.123,1.521,0.188c0.427,0.054,0.854,0.106,1.279,0.166c0.537,0.075,1.07,0.161,1.604,0.245
			c0.391,0.061,0.783,0.118,1.172,0.184c0.599,0.101,1.193,0.214,1.788,0.325c0.32,0.06,0.642,0.115,0.961,0.178
			c0.852,0.169,1.7,0.35,2.544,0.541c0.058,0.013,0.117,0.024,0.175,0.037c0.916,0.209,1.826,0.431,2.731,0.665
			c0.153,0.04,0.303,0.084,0.456,0.125c0.742,0.196,1.482,0.397,2.216,0.61c0.247,0.072,0.491,0.15,0.737,0.224
			c0.636,0.19,1.271,0.382,1.9,0.585c0.279,0.09,0.554,0.186,0.832,0.279c0.591,0.197,1.181,0.396,1.766,0.604
			c0.293,0.104,0.582,0.214,0.873,0.321c0.565,0.208,1.13,0.418,1.689,0.637c0.294,0.115,0.585,0.234,0.877,0.352
			c0.55,0.222,1.099,0.447,1.643,0.679c0.292,0.125,0.582,0.253,0.872,0.381c0.538,0.237,1.073,0.477,1.605,0.724
			c0.287,0.133,0.571,0.269,0.856,0.405c0.529,0.253,1.055,0.51,1.576,0.773c0.28,0.141,0.558,0.284,0.836,0.428
			c0.519,0.269,1.034,0.543,1.545,0.822c0.273,0.149,0.544,0.298,0.815,0.45c0.512,0.287,1.019,0.58,1.523,0.877
			c0.26,0.153,0.521,0.307,0.779,0.463c0.506,0.306,1.007,0.62,1.506,0.936c0.249,0.158,0.499,0.315,0.746,0.476
			c0.501,0.326,0.995,0.661,1.487,0.998c0.236,0.161,0.473,0.32,0.706,0.484c0.5,0.35,0.992,0.71,1.482,1.072
			c0.216,0.16,0.436,0.316,0.65,0.478c0.505,0.381,1.002,0.772,1.497,1.166c0.191,0.152,0.386,0.3,0.576,0.454
			c0.066,0.053,0.129,0.11,0.194,0.163c-5.993,13.49-17.056,20.485-25.702,24.037c-17.805,7.313-37.692,5.667-48.135,0.26
			c-13.871-7.182-26.74-8.544-39.343-4.172c-9.324,3.237-18.592,9.664-28.735,19.971c-1.467-4.224-3.223-8.014-5.263-11.388
			C283.922,132.665,307.831,115.973,335.718,109.574z M206.853,101.622c-6.751-7.094-12.581-13.22-15.424-23.884
			c-0.565-2.122-0.718-3.506-0.736-4.341c3.445,0.196,11.243,3.351,17.479,7.196c2.731,1.684,6.224,1.428,8.7-0.61
			c2.476-2.04,3.375-5.444,2.244-8.447c-4.306-11.436-4.469-21.525-2.472-22.75c0.426-0.262,0.623-0.281,0.623-0.281
			c1.317,0.054,4.711,4.107,6.501,8.316c1.162,2.785,3.885,4.591,6.903,4.6c0.008,0.001,0.016,0.001,0.024,0.001
			c3.008-0.001,5.732-1.811,6.908-4.581c1.793-4.224,5.182-8.276,6.499-8.336c0.001,0,0.199,0.021,0.633,0.288
			c1.991,1.219,1.83,11.305-2.492,22.797c-1.119,3.002-0.208,6.384,2.268,8.416c2.476,2.034,5.97,2.268,8.697,0.588
			c6.236-3.846,14.034-7,17.479-7.196c-0.018,0.835-0.171,2.219-0.736,4.341v-0.001c-2.842,10.665-8.673,16.791-15.424,23.884
			c-7.542,7.924-15.964,16.78-20.07,32.507c-1.223-0.062-2.468-0.105-3.767-0.105c-1.297,0-2.542,0.042-3.767,0.104
			C222.817,118.402,214.395,109.546,206.853,101.622z M221.963,149.747l8.728-0.696l8.728,0.696
			c5.595,1.008,11.692,3.284,16.719,9.861c0.055,0.071,0.108,0.144,0.166,0.213c3.758,5.012,6.898,12.48,8.757,23.683h-68.74
			C200.68,157.209,212.103,151.516,221.963,149.747z M121.36,66.005c0-4.136,3.364-7.5,7.5-7.5c2.006,0,3.888,0.779,5.307,2.204
			c1.414,1.414,2.193,3.295,2.193,5.296v27.744c-2.535-0.176-5.044-0.245-7.498-0.245h-0.001h-0.001c-2.455,0-4.964,0.068-7.5,0.245
			V66.005z M84.613,140.705c0.142-0.458,0.288-0.906,0.434-1.352c0.132-0.4,0.265-0.797,0.4-1.188
			c0.15-0.433,0.302-0.86,0.456-1.281c0.14-0.382,0.282-0.759,0.426-1.131c0.157-0.408,0.315-0.812,0.476-1.208
			c0.148-0.364,0.3-0.721,0.452-1.076c0.165-0.385,0.329-0.769,0.498-1.143c0.156-0.345,0.316-0.68,0.476-1.016
			c0.172-0.362,0.343-0.727,0.519-1.078c0.165-0.329,0.335-0.645,0.503-0.965c0.178-0.338,0.354-0.681,0.536-1.009
			c0.176-0.318,0.358-0.62,0.539-0.928c0.182-0.311,0.36-0.629,0.545-0.93c0.226-0.368,0.46-0.718,0.692-1.071
			c0.315-0.48,0.635-0.947,0.959-1.402c0.202-0.283,0.401-0.571,0.607-0.844c0.198-0.263,0.402-0.511,0.604-0.766
			c0.204-0.257,0.406-0.517,0.613-0.765c0.207-0.247,0.418-0.483,0.629-0.721c0.21-0.238,0.418-0.477,0.631-0.706
			c0.214-0.23,0.432-0.452,0.65-0.674c0.216-0.22,0.432-0.44,0.652-0.652c0.221-0.214,0.445-0.421,0.67-0.627
			c0.224-0.205,0.448-0.407,0.675-0.604s0.456-0.389,0.686-0.578c0.232-0.19,0.466-0.376,0.701-0.559
			c0.232-0.18,0.465-0.358,0.701-0.531c0.241-0.177,0.484-0.347,0.729-0.516c0.237-0.164,0.474-0.327,0.713-0.484
			c0.252-0.164,0.507-0.321,0.763-0.477c0.239-0.147,0.477-0.295,0.719-0.435c0.267-0.154,0.538-0.299,0.808-0.446
			c0.237-0.128,0.472-0.261,0.712-0.383c0.295-0.151,0.595-0.291,0.895-0.433c0.221-0.105,0.44-0.216,0.664-0.316
			c0.452-0.203,0.91-0.393,1.371-0.578c0.233-0.093,0.47-0.181,0.705-0.27c0.374-0.141,0.748-0.282,1.128-0.411
			c0.236-0.081,0.477-0.152,0.715-0.228c0.32-0.102,0.639-0.206,0.963-0.301c0.257-0.075,0.517-0.143,0.776-0.213
			c0.312-0.085,0.625-0.17,0.941-0.249c0.266-0.066,0.536-0.126,0.805-0.188c0.316-0.072,0.632-0.144,0.951-0.21
			c0.272-0.056,0.547-0.109,0.822-0.161c0.323-0.061,0.647-0.121,0.973-0.176c0.276-0.047,0.555-0.092,0.834-0.135
			c0.331-0.051,0.664-0.099,0.998-0.145c0.28-0.038,0.561-0.075,0.844-0.109c0.341-0.041,0.684-0.079,1.028-0.115
			c0.281-0.029,0.562-0.059,0.846-0.085c0.356-0.033,0.715-0.061,1.074-0.088c0.276-0.021,0.552-0.044,0.831-0.062
			c0.379-0.025,0.762-0.044,1.145-0.064c0.265-0.013,0.529-0.029,0.796-0.04c0.427-0.017,0.858-0.029,1.29-0.041
			c0.227-0.006,0.451-0.015,0.679-0.02c0.655-0.013,1.314-0.02,1.98-0.02c0.007,0,0.015,0,0.022,0c0.675,0,1.343,0.007,2.007,0.02
			c0.21,0.004,0.416,0.012,0.625,0.018c0.452,0.012,0.903,0.024,1.349,0.042c0.248,0.01,0.492,0.025,0.738,0.037
			c0.405,0.02,0.81,0.041,1.21,0.067c0.257,0.017,0.51,0.038,0.765,0.057c0.384,0.029,0.767,0.059,1.147,0.094
			c0.261,0.024,0.519,0.052,0.777,0.079c0.37,0.039,0.74,0.079,1.106,0.124c0.257,0.031,0.512,0.065,0.767,0.1
			c0.363,0.049,0.725,0.101,1.084,0.157c0.251,0.039,0.502,0.079,0.751,0.121c0.362,0.061,0.721,0.127,1.079,0.195
			c0.238,0.045,0.476,0.091,0.713,0.14c0.367,0.076,0.731,0.158,1.093,0.241c0.221,0.051,0.443,0.101,0.663,0.155
			c0.381,0.094,0.758,0.196,1.134,0.3c0.195,0.054,0.391,0.104,0.585,0.161c0.422,0.123,0.839,0.256,1.254,0.392
			c0.142,0.046,0.286,0.088,0.426,0.136c1.124,0.381,2.222,0.811,3.293,1.294c0.071,0.032,0.139,0.068,0.21,0.1
			c0.457,0.21,0.91,0.427,1.357,0.657c0.14,0.072,0.276,0.15,0.415,0.223c0.375,0.199,0.748,0.402,1.116,0.616
			c0.161,0.094,0.318,0.193,0.478,0.289c0.341,0.206,0.68,0.416,1.015,0.635c0.167,0.11,0.332,0.224,0.497,0.337
			c0.323,0.22,0.643,0.445,0.959,0.679c0.166,0.123,0.331,0.249,0.495,0.375c0.311,0.239,0.619,0.484,0.923,0.736
			c0.161,0.133,0.322,0.269,0.481,0.406c0.305,0.262,0.606,0.532,0.904,0.809c0.151,0.14,0.303,0.28,0.453,0.424
			c0.305,0.293,0.606,0.596,0.904,0.905c0.136,0.141,0.273,0.279,0.408,0.424c0.314,0.335,0.622,0.684,0.928,1.038
			c0.113,0.131,0.229,0.258,0.341,0.392c0.342,0.407,0.679,0.83,1.011,1.262c0.07,0.091,0.143,0.178,0.213,0.27
			c1.224,1.617,2.38,3.403,3.466,5.372c0.059,0.107,0.116,0.22,0.174,0.329c0.295,0.544,0.586,1.098,0.87,1.669
			c0.087,0.174,0.17,0.356,0.256,0.533c0.252,0.52,0.501,1.046,0.744,1.589c0.096,0.215,0.19,0.437,0.285,0.656
			c0.227,0.522,0.451,1.052,0.67,1.596c0.098,0.243,0.194,0.491,0.291,0.738c0.211,0.54,0.418,1.089,0.621,1.65
			c0.095,0.263,0.19,0.529,0.283,0.796c0.198,0.567,0.392,1.145,0.583,1.733c0.09,0.277,0.18,0.554,0.268,0.836
			c0.069,0.219,0.133,0.448,0.201,0.669c-1.32-0.352-2.747-0.947-4.216-1.775c-5.144-2.897-10.238-8.269-13.982-14.751
			c-0.149-0.257-0.297-0.521-0.438-0.776c-1.551-2.835-4.742-4.356-7.923-3.779c-3.179,0.579-5.63,3.129-6.083,6.329
			c-1.667,11.785-7.394,19.08-11.744,19.08c-4.35,0-10.077-7.295-11.744-19.08c-0.453-3.2-2.904-5.75-6.083-6.329
			c-0.45-0.082-0.899-0.121-1.345-0.121c-2.704,0-5.246,1.466-6.578,3.9c-0.142,0.259-0.292,0.524-0.444,0.788
			c-5.58,9.656-12.869,15.033-18.185,16.473C84.527,140.993,84.569,140.846,84.613,140.705z M80.99,156.524
			c8.468,0.273,17.888-4.311,25.848-12.563c4.957,10.193,12.993,16.543,22.024,16.543s17.068-6.35,22.025-16.543
			c7.958,8.25,17.377,12.834,25.843,12.562c1.289,7.929,2.107,16.955,2.445,26.98H78.545C78.882,173.481,79.7,164.456,80.99,156.524
			z M55,198.503h15.808c0.025,0,0.049,0,0.073,0h115.957c0.024,0,0.049,0,0.073,0h0.867c0.007,0,0.013,0.001,0.02,0.001
			c0.007,0,0.014-0.001,0.021-0.001h260.102c0.012,0,0.024,0.002,0.036,0.002c0.008,0,0.015-0.002,0.023-0.002H457v94.999H55
			V198.503z M55,338.501h329c4.142,0,7.5-3.357,7.5-7.5s-3.358-7.5-7.5-7.5H55v-15h402v15h-40.667c-4.142,0-7.5,3.357-7.5,7.5
			s3.358,7.5,7.5,7.5H457V433.5H55V338.501z M497,463.499H15v-15h32.5h417H497V463.499z"/>
	</g>
</g>
<g>
</g>
<g>
</g>
<g>
</g>
<g>
</g>
<g>
</g>
<g>
</g>
<g>
</g>
<g>
</g>
<g>
</g>
<g>
</g>
<g>
</g>
<g>
</g>
<g>
</g>
<g>
</g>
<g>
</g>
</svg>
