<?xml version="1.0" encoding="iso-8859-1"?>
<!-- Generator: Adobe Illustrator 19.0.0, SVG Export Plug-In . SVG Version: 6.00 Build 0)  -->
<svg version="1.1" id="Layer_1" xmlns="http://www.w3.org/2000/svg" xmlns:xlink="http://www.w3.org/1999/xlink" x="0px" y="0px"
	 viewBox="0 0 512 512" style="enable-background:new 0 0 512 512;" xml:space="preserve">
<g>
	<g>
		<path d="M452.766,286.609l45.25-45.25L256,0L13.984,242.688l45.25,45.25l26.094-26.188V448H64v64h384v-64h-21.328V260.594
			L452.766,286.609z M426.672,490.656H85.328v-21.328h341.344V490.656z M306.578,312.219c3.313-2.281,5.188-6.328,4.484-10.547
			c-0.984-5.813-6.484-9.734-12.281-8.75c-1.594,0.266-3.031,0.875-4.266,1.734l-0.016-0.016
			c-0.984,0.688-24.578,17.047-45.266,46.5c-1.938,2.766-3.781,5.563-5.547,8.375c-8.125-15.625-7.078-35.234,4.344-50.078
			c12.344-16.063,35.313-29.297,66.422-38.297c9.766-2.828,18.953-4.828,26.578-6.219c0.578,7.484,1,16.578,0.813,26.484
			c-0.609,32.75-7.516,58.609-19.969,74.813c-8.906,11.578-22.406,18.219-37.047,18.219c-9.5,0-18.547-2.813-26.344-8.172
			c2.375-4.125,4.969-8.219,7.813-12.281c18.454-26.515,40.079-41.609,40.298-41.765H306.578z M249.109,385.594
			c11.031,6.844,23.406,10.188,35.719,10.188c20.391,0,40.563-9.141,53.953-26.563c37.313-48.516,20.797-138.438,20.797-138.438
			s-87.156,6.813-125.891,52.5c-29.516-15.609-68.188-16.969-80.656-16.969c-2.594,0-4.047,0.063-4.047,0.063
			s-4.516,70.938,28.75,105c10.359,10.594,24.078,15.922,37.828,15.922c3.594,0,7.203-0.375,10.734-1.109
			c-6.656,20.094-9.047,40.859-7.063,61.813H106.672V240.344L253.656,92.859l18.656,13.906l133.016,132.563V448H240.656
			C238.25,426.656,241.078,405.797,249.109,385.594z M196.985,333.094c9.281,10.375,19.344,22.406,26.625,31.828
			c-2.594,0.688-5.297,1.047-8.047,1.047c-8.578,0-16.594-3.375-22.578-9.5c-10.266-10.516-17.484-28.672-20.859-52.516
			c-0.781-5.516-1.281-10.781-1.578-15.5c6.875,0.609,14.953,1.641,23.297,3.422c11.016,2.344,20.609,5.594,28.516,9.594
			c-3.033,7.156-4.752,14.687-5.22,22.234c-2.469-2.844-4.078-4.641-4.25-4.828c-1.813-2.031-4.406-3.375-7.344-3.547
			c-5.891-0.328-10.922,4.172-11.25,10.047C194.125,328.328,195.172,331.063,196.985,333.094z M271.063,75.406l-15.109-15.063
			l-15.063,15.109L59.203,257.734l-15.078-15.078L256.047,30.172l211.781,211.203l-15.094,15.094L271.063,75.406z"/>
	</g>
</g>
<g>
</g>
<g>
</g>
<g>
</g>
<g>
</g>
<g>
</g>
<g>
</g>
<g>
</g>
<g>
</g>
<g>
</g>
<g>
</g>
<g>
</g>
<g>
</g>
<g>
</g>
<g>
</g>
<g>
</g>
</svg>
