<?xml version="1.0" encoding="iso-8859-1"?>
<!-- Generator: Adobe Illustrator 19.0.0, SVG Export Plug-In . SVG Version: 6.00 Build 0)  -->
<svg version="1.1" id="Layer_1" xmlns="http://www.w3.org/2000/svg" xmlns:xlink="http://www.w3.org/1999/xlink" x="0px" y="0px"
	 viewBox="0 0 512 512" style="enable-background:new 0 0 512 512;" xml:space="preserve">
<g>
	<g>
		<path d="M256.664,0L13.977,242.688l45.266,45.25l26.094-26.094V512h341.328V260.516l26.109,26.109l45.249-45.266L256.664,0z
			 M213.336,486.375h-42.672V256h42.672V486.375z M277.336,486.375h-42.672V256h42.672V486.375z M341.336,486.375h-42.672V256
			h42.672V486.375z M405.336,490.672h-42.672v-256H149.336v256h-42.672V240.516l150-150l148.672,148.672V490.672z M452.774,256.454
			L271.758,75.422l-15.094-15.078l-15.078,15.078L59.242,257.781l-15.094-15.093L256.664,30.172L467.852,241.36L452.774,256.454z"/>
	</g>
</g>
<g>
	<g>
		<path d="M192.008,362.672c-5.89,0-10.672,4.781-10.672,10.672S186.117,384,192.008,384s10.656-4.766,10.656-10.656
			S197.898,362.672,192.008,362.672z"/>
	</g>
</g>
<g>
</g>
<g>
</g>
<g>
</g>
<g>
</g>
<g>
</g>
<g>
</g>
<g>
</g>
<g>
</g>
<g>
</g>
<g>
</g>
<g>
</g>
<g>
</g>
<g>
</g>
<g>
</g>
<g>
</g>
</svg>
