<?xml version="1.0" encoding="iso-8859-1"?>
<!-- Generator: Adobe Illustrator 19.0.0, SVG Export Plug-In . SVG Version: 6.00 Build 0)  -->
<svg version="1.1" id="Layer_1" xmlns="http://www.w3.org/2000/svg" xmlns:xlink="http://www.w3.org/1999/xlink" x="0px" y="0px"
	 viewBox="0 0 512 512" style="enable-background:new 0 0 512 512;" xml:space="preserve">
<g>
	<g>
		<path d="M256,0C114.617,0,0,114.609,0,256c0,141.375,114.617,256,256,256c141.375,0,256-114.625,256-256
			C512,114.609,397.375,0,256,0z M421.938,421.922c-21.562,21.562-46.656,38.484-74.594,50.297
			c-28.922,12.234-59.656,18.438-91.344,18.438s-62.422-6.203-91.336-18.438c-27.945-11.812-53.039-28.734-74.602-50.297
			c-21.555-21.547-38.477-46.656-50.297-74.594c-12.234-28.922-18.43-59.641-18.43-91.328c0-31.703,6.195-62.422,18.43-91.344
			c11.82-27.938,28.742-53.047,50.297-74.594c21.562-21.562,46.656-38.484,74.602-50.312C193.578,27.531,224.312,21.328,256,21.328
			s62.422,6.203,91.344,18.422c27.938,11.828,53.031,28.75,74.594,50.312c21.562,21.547,38.469,46.656,50.297,74.594
			c12.234,28.922,18.422,59.641,18.422,91.344c0,31.688-6.188,62.406-18.422,91.328C460.406,375.266,443.5,400.375,421.938,421.922z
			"/>
	</g>
</g>
<g>
</g>
<g>
</g>
<g>
</g>
<g>
</g>
<g>
</g>
<g>
</g>
<g>
</g>
<g>
</g>
<g>
</g>
<g>
</g>
<g>
</g>
<g>
</g>
<g>
</g>
<g>
</g>
<g>
</g>
</svg>
